<mxfile host="app.diagrams.net" modified="2024-06-16T03:24:55.906Z" agent="Mozilla/5.0 (Windows NT 10.0; Win64; x64) AppleWebKit/537.36 (KHTML, like Gecko) Chrome/125.0.0.0 Safari/537.36" etag="quy6zh-v1-7ccgJZh8O1" version="24.4.8" type="device">
  <diagram name="第 1 页" id="bvdsCo7xmIKqKXMYNPlA">
    <mxGraphModel dx="1221" dy="759" grid="1" gridSize="10" guides="1" tooltips="1" connect="1" arrows="1" fold="1" page="1" pageScale="1" pageWidth="827" pageHeight="1169" math="0" shadow="0">
      <root>
        <mxCell id="0" />
        <mxCell id="1" parent="0" />
        <mxCell id="P36ZzoQp2SH_YryLtCfp-5" style="edgeStyle=orthogonalEdgeStyle;rounded=0;orthogonalLoop=1;jettySize=auto;html=1;entryX=0;entryY=0.5;entryDx=0;entryDy=0;" edge="1" parent="1" source="P36ZzoQp2SH_YryLtCfp-1" target="P36ZzoQp2SH_YryLtCfp-3">
          <mxGeometry relative="1" as="geometry" />
        </mxCell>
        <mxCell id="P36ZzoQp2SH_YryLtCfp-7" style="edgeStyle=orthogonalEdgeStyle;rounded=0;orthogonalLoop=1;jettySize=auto;html=1;exitX=0;exitY=0.5;exitDx=0;exitDy=0;entryX=1;entryY=0.5;entryDx=0;entryDy=0;" edge="1" parent="1" source="P36ZzoQp2SH_YryLtCfp-1" target="P36ZzoQp2SH_YryLtCfp-2">
          <mxGeometry relative="1" as="geometry" />
        </mxCell>
        <mxCell id="P36ZzoQp2SH_YryLtCfp-1" value="" style="ellipse;whiteSpace=wrap;html=1;aspect=fixed;" vertex="1" parent="1">
          <mxGeometry x="370" y="350" width="50" height="50" as="geometry" />
        </mxCell>
        <mxCell id="P36ZzoQp2SH_YryLtCfp-4" style="edgeStyle=orthogonalEdgeStyle;rounded=0;orthogonalLoop=1;jettySize=auto;html=1;exitX=1;exitY=0.5;exitDx=0;exitDy=0;entryX=0;entryY=0.5;entryDx=0;entryDy=0;" edge="1" parent="1" source="P36ZzoQp2SH_YryLtCfp-2" target="P36ZzoQp2SH_YryLtCfp-1">
          <mxGeometry relative="1" as="geometry" />
        </mxCell>
        <mxCell id="P36ZzoQp2SH_YryLtCfp-15" style="edgeStyle=orthogonalEdgeStyle;rounded=0;orthogonalLoop=1;jettySize=auto;html=1;exitX=0.5;exitY=1;exitDx=0;exitDy=0;" edge="1" parent="1" source="P36ZzoQp2SH_YryLtCfp-2">
          <mxGeometry relative="1" as="geometry">
            <mxPoint x="280" y="440" as="targetPoint" />
          </mxGeometry>
        </mxCell>
        <mxCell id="P36ZzoQp2SH_YryLtCfp-16" style="edgeStyle=orthogonalEdgeStyle;rounded=0;orthogonalLoop=1;jettySize=auto;html=1;exitX=0;exitY=0.5;exitDx=0;exitDy=0;" edge="1" parent="1" source="P36ZzoQp2SH_YryLtCfp-2">
          <mxGeometry relative="1" as="geometry">
            <mxPoint x="220" y="370" as="targetPoint" />
          </mxGeometry>
        </mxCell>
        <mxCell id="P36ZzoQp2SH_YryLtCfp-17" style="edgeStyle=orthogonalEdgeStyle;rounded=0;orthogonalLoop=1;jettySize=auto;html=1;exitX=0.5;exitY=0;exitDx=0;exitDy=0;" edge="1" parent="1" source="P36ZzoQp2SH_YryLtCfp-2">
          <mxGeometry relative="1" as="geometry">
            <mxPoint x="295" y="300" as="targetPoint" />
          </mxGeometry>
        </mxCell>
        <mxCell id="P36ZzoQp2SH_YryLtCfp-2" value="" style="ellipse;whiteSpace=wrap;html=1;aspect=fixed;" vertex="1" parent="1">
          <mxGeometry x="270" y="350" width="50" height="50" as="geometry" />
        </mxCell>
        <mxCell id="P36ZzoQp2SH_YryLtCfp-6" value="" style="edgeStyle=orthogonalEdgeStyle;rounded=0;orthogonalLoop=1;jettySize=auto;html=1;" edge="1" parent="1" source="P36ZzoQp2SH_YryLtCfp-3" target="P36ZzoQp2SH_YryLtCfp-1">
          <mxGeometry relative="1" as="geometry" />
        </mxCell>
        <mxCell id="P36ZzoQp2SH_YryLtCfp-12" style="edgeStyle=orthogonalEdgeStyle;rounded=0;orthogonalLoop=1;jettySize=auto;html=1;exitX=1;exitY=0.5;exitDx=0;exitDy=0;" edge="1" parent="1" source="P36ZzoQp2SH_YryLtCfp-3">
          <mxGeometry relative="1" as="geometry">
            <mxPoint x="610" y="400" as="targetPoint" />
          </mxGeometry>
        </mxCell>
        <mxCell id="P36ZzoQp2SH_YryLtCfp-13" style="edgeStyle=orthogonalEdgeStyle;rounded=0;orthogonalLoop=1;jettySize=auto;html=1;exitX=0.5;exitY=1;exitDx=0;exitDy=0;" edge="1" parent="1" source="P36ZzoQp2SH_YryLtCfp-3">
          <mxGeometry relative="1" as="geometry">
            <mxPoint x="560" y="440" as="targetPoint" />
          </mxGeometry>
        </mxCell>
        <mxCell id="P36ZzoQp2SH_YryLtCfp-14" style="edgeStyle=orthogonalEdgeStyle;rounded=0;orthogonalLoop=1;jettySize=auto;html=1;exitX=0.5;exitY=0;exitDx=0;exitDy=0;" edge="1" parent="1" source="P36ZzoQp2SH_YryLtCfp-3">
          <mxGeometry relative="1" as="geometry">
            <mxPoint x="550" y="320" as="targetPoint" />
          </mxGeometry>
        </mxCell>
        <mxCell id="P36ZzoQp2SH_YryLtCfp-3" value="" style="ellipse;whiteSpace=wrap;html=1;aspect=fixed;" vertex="1" parent="1">
          <mxGeometry x="470" y="350" width="50" height="50" as="geometry" />
        </mxCell>
      </root>
    </mxGraphModel>
  </diagram>
</mxfile>
